<svg xmlns="http://www.w3.org/2000/svg" version="1.1" xmlns:xlink="http://www.w3.org/1999/xlink" xmlns:svgjs="http://svgjs.com/svgjs" width="512" height="512" x="0" y="0" viewBox="0 0 512 512" style="enable-background:new 0 0 512 512" xml:space="preserve"><g><path d="m84.746 174.719.194-.003a7.494 7.494 0 0 0 5.464-2.574l39.19-45.037a7.5 7.5 0 0 0-11.315-9.846L84.46 156.122l-12.62-13.075a7.5 7.5 0 0 0-10.793 10.417l18.303 18.963a7.497 7.497 0 0 0 5.396 2.292zM61.047 237.361l18.303 18.963a7.502 7.502 0 0 0 11.054-.286l39.19-45.037a7.5 7.5 0 0 0-11.315-9.846L84.46 240.019l-12.62-13.075a7.5 7.5 0 0 0-10.793 10.417zM161.784 152.2h86.519c4.142 0 7.5-3.357 7.5-7.5s-3.358-7.5-7.5-7.5h-86.519c-4.142 0-7.5 3.357-7.5 7.5s3.358 7.5 7.5 7.5zM161.784 236.097h86.519c4.142 0 7.5-3.357 7.5-7.5s-3.358-7.5-7.5-7.5h-86.519c-4.142 0-7.5 3.357-7.5 7.5s3.358 7.5 7.5 7.5zM61.047 321.258l18.303 18.963a7.502 7.502 0 0 0 11.054-.286l39.19-45.037a7.5 7.5 0 0 0-11.315-9.846L84.46 323.915 71.84 310.84a7.502 7.502 0 0 0-10.605-.188 7.502 7.502 0 0 0-.188 10.606zM161.784 319.993h86.519c4.142 0 7.5-3.357 7.5-7.5s-3.358-7.5-7.5-7.5h-86.519c-4.142 0-7.5 3.357-7.5 7.5s3.358 7.5 7.5 7.5zM148.733 393.292v-12c0-4.143-3.358-7.5-7.5-7.5s-7.5 3.357-7.5 7.5v12c0 4.143 3.358 7.5 7.5 7.5s7.5-3.357 7.5-7.5zM273.63 393.292v-12c0-4.143-3.358-7.5-7.5-7.5s-7.5 3.357-7.5 7.5v12c0 4.143 3.358 7.5 7.5 7.5s7.5-3.357 7.5-7.5zM214.491 388.008c-2.729 3.132-6.669 4.928-10.81 4.928s-8.081-1.796-10.81-4.928a7.5 7.5 0 1 0-11.309 9.853c5.579 6.402 13.641 10.074 22.119 10.074s16.54-3.672 22.118-10.074a7.5 7.5 0 1 0-11.308-9.853zM400.664 265.767a247.856 247.856 0 0 1-5.222-1.905v-27.944c4.398 1.053 7.02 3.276 7.253 3.479a5.91 5.91 0 0 0 7.974-8.725c-.336-.31-5.982-5.397-15.226-6.784v-5.707a5.909 5.909 0 1 0-11.818 0v6.161c-.877.193-1.767.415-2.677.689-8.454 2.547-14.77 9.781-16.485 18.88-1.563 8.297 1.095 16.297 6.937 20.879 3.096 2.428 6.948 4.652 12.225 7.001v35.435c-4.564-.336-7.728-1.453-12.908-4.842a5.909 5.909 0 1 0-6.47 9.89c7.555 4.942 12.715 6.415 19.379 6.79v6.391a5.909 5.909 0 1 0 11.818 0v-6.86c13.258-2.601 21.002-13.534 22.719-23.746 2.206-13.129-4.662-24.545-17.499-29.082zm-21.971-10.275c-2.356-1.849-3.359-5.447-2.616-9.39.666-3.534 2.999-7.78 7.547-9.497v22.04c-1.855-1.008-3.534-2.058-4.931-3.153zm27.814 37.399c-.91 5.41-4.677 11.144-11.064 13.429v-29.869c.426.153.844.304 1.283.459 10.919 3.86 10.247 13.208 9.781 15.981z" fill="#fb4b9e" data-original="#000000"></path><path d="M507.03 271.82c0-7.69-.756-15.387-2.247-22.876a7.5 7.5 0 1 0-14.711 2.927 102.43 102.43 0 0 1 1.958 19.948c0 43.867-27.969 82.728-69.601 96.7a101.012 101.012 0 0 1-27.859 5.166 104.07 104.07 0 0 1-4.511.104c-11.069 0-21.957-1.772-32.365-5.271-41.633-13.964-69.605-52.824-69.605-96.699 0-56.227 45.744-101.971 101.97-101.971 1.414 0 2.933.035 4.512.104 34.961 1.527 66.323 20.631 83.896 51.1a7.5 7.5 0 0 0 12.994-7.494c-18.936-32.833-51.854-54.152-89.048-58.054.717-21.788.046-41.077-16.868-57.749v-.001c-31.447-30.891-66.644-68.081-86.936-86.133l.007-.01C288.712 4.169 276.41-.005 264.01 0H78.5C37.955 0 4.97 32.985 4.97 73.53v255.31c0 4.143 3.358 7.5 7.5 7.5s7.5-3.357 7.5-7.5V73.53C19.97 41.257 46.226 15 78.5 15h185.503c2.892 0 5.777.306 8.602.898l-9.887 78.487c-1.944 15.433 3.25 30.592 14.248 41.591 9.482 9.482 22.055 14.649 35.23 14.649 2.108 0 4.233-.133 6.362-.4l68.91-8.681c.106 4.197-.002 8.877-.049 13.339-63.283 1.409-114.331 53.322-114.331 116.937 0 48.509 29.812 91.663 74.72 109.06v66.07c0 14.555 7.654 27.952 19.521 35.591A58.245 58.245 0 0 1 328.86 497H78.5c-32.273 0-58.53-26.257-58.53-58.53v-74.63c0-4.143-3.358-7.5-7.5-7.5s-7.5 3.357-7.5 7.5v74.63C4.97 479.015 37.955 512 78.5 512h250.36c20.571 0 39.931-8.492 53.832-23.447a42.3 42.3 0 0 0 7.368.647c23.302 0 42.26-18.953 42.26-42.25v-66.071c44.904-17.407 74.71-60.559 74.71-109.059zM316.684 135.342c-10.805 1.361-21.413-2.273-29.111-9.973-7.698-7.698-11.333-18.308-9.972-29.109l9.382-74.477c12.632 9.52 58.275 57.632 70.565 69.221 17.469 18.665 22.512 18.767 28.101 35.651zM390.06 474.2c-2.701 0-5.342-.389-7.88-1.163-11.405-3.429-19.37-14.156-19.37-26.087v-61.384a116.715 116.715 0 0 0 54.51-.004v61.388c0 15.026-12.229 27.25-27.26 27.25z" fill="#fb4b9e" data-original="#000000"></path><path d="M390.061 185.994c-47.324 0-85.825 38.501-85.825 85.825 0 47.323 38.501 85.824 85.825 85.824s85.825-38.501 85.825-85.824c-.001-47.324-38.501-85.825-85.825-85.825zm0 156.65c-39.053 0-70.825-31.771-70.825-70.824s31.772-70.825 70.825-70.825 70.825 31.772 70.825 70.825-31.772 70.824-70.825 70.824z" fill="#fb4b9e" data-original="#000000"></path></g></svg>