<svg xmlns="http://www.w3.org/2000/svg" version="1.1" xmlns:xlink="http://www.w3.org/1999/xlink" xmlns:svgjs="http://svgjs.com/svgjs" width="512" height="512" x="0" y="0" viewBox="0 0 64 64" style="enable-background:new 0 0 512 512" xml:space="preserve"><g><path d="M19.58 11.446a1.002 1.002 0 0 0-1.387-.279A25.114 25.114 0 0 0 8.041 24.851a1 1 0 1 0 1.916.573A23.106 23.106 0 0 1 19.3 12.833a1 1 0 0 0 .28-1.387z" fill="#f55b29" data-original="#000000"></path><circle cx="22" cy="10" r="1" fill="#f55b29" data-original="#000000"></circle><path d="M32 3a29 29 0 1 0 29 29A29.033 29.033 0 0 0 32 3zm0 56a27 27 0 1 1 27-27 27.03 27.03 0 0 1-27 27z" fill="#f55b29" data-original="#000000"></path><path d="M47.207 21.793a4.54 4.54 0 0 0-6.414 0L29 33.586l-4.793-4.793a4.535 4.535 0 1 0-6.414 6.414l7.671 7.671a5.005 5.005 0 0 0 7.072 0l14.671-14.671a4.54 4.54 0 0 0 0-6.414zm-1.414 5L31.122 41.464a3.004 3.004 0 0 1-4.244 0l-7.671-7.671a2.536 2.536 0 0 1 3.586-3.586l5.5 5.5a1 1 0 0 0 1.414 0l12.5-12.5a2.536 2.536 0 0 1 3.586 3.586z" fill="#f55b29" data-original="#000000"></path></g></svg>