<svg xmlns="http://www.w3.org/2000/svg" version="1.1" xmlns:xlink="http://www.w3.org/1999/xlink" xmlns:svgjs="http://svgjs.com/svgjs" width="512" height="512" x="0" y="0" viewBox="0 0 128 128" style="enable-background:new 0 0 512 512" xml:space="preserve" class=""><g><path d="M28 40.476A12.476 12.476 0 1 0 15.523 28 12.49 12.49 0 0 0 28 40.476Zm0-20.952A8.476 8.476 0 1 1 19.523 28 8.486 8.486 0 0 1 28 19.524ZM28 13.238a2 2 0 0 0 2-2V6a2 2 0 0 0-4 0v5.238a2 2 0 0 0 2 2ZM39.852 18.148a1.995 1.995 0 0 0 1.415-.586l3.704-3.704a2 2 0 0 0-2.828-2.829l-3.705 3.704a2 2 0 0 0 1.414 3.415ZM42.762 28a2 2 0 0 0 2 2H50a2 2 0 0 0 0-4h-5.238a2 2 0 0 0-2 2ZM38.438 38.438a2 2 0 0 0 0 2.829l3.705 3.704a2 2 0 0 0 2.828-2.83l-3.704-3.703a2 2 0 0 0-2.829 0ZM26 44.762V50a2 2 0 0 0 4 0v-5.238a2 2 0 1 0-4 0ZM17.561 38.438a2 2 0 0 0-2.828 0l-3.704 3.704a2 2 0 0 0 2.828 2.83l3.704-3.705a2 2 0 0 0 0-2.829ZM13.238 28a2 2 0 0 0-2-2H6a2 2 0 0 0 0 4h5.238a2 2 0 0 0 2-2ZM14.733 17.562a2 2 0 0 0 2.828-2.829l-3.704-3.704a2 2 0 0 0-2.828 2.83Z" fill="#03ca8f" data-original="#000000"></path><path d="m123.936 95.498-13.22-51A6.008 6.008 0 0 0 104.9 40H52.13a2 2 0 1 0 0 4H66v14H48.362l1.03-6.18a2 2 0 0 0-3.945-.659L44.307 58H27.92l.166-.638a2 2 0 1 0-3.871-1.004l-.82 3.158c-.008.036-.02.07-.027.107l-9.303 35.875c-.005.016-.003.033-.007.049-.004.02-.015.041-.018.063A1.708 1.708 0 0 0 14 96v8a2 2 0 0 0 2 2h42v6H47a2 2 0 0 0-2 2v8a2 2 0 0 0 2 2h42a2 2 0 0 0 2-2v-8a2 2 0 0 0-2-2H78v-6h44a2 2 0 0 0 2-2v-8a2.024 2.024 0 0 0-.064-.502ZM42.361 94l2.334-14H66v14Zm-23.776 0 3.63-14H40.64l-2.334 14ZM70 80h23.306l2.333 14H70Zm44.75-4H96.694l-2.333-14h16.76Zm-22.11 0H70V62h20.306Zm7.054 18-2.333-14h18.426l3.628 14Zm7.15-48.498L110.085 58h-16.39l-2.333-14H104.9a2.01 2.01 0 0 1 1.945 1.502ZM70 44h17.306l2.333 14H70Zm-4 18v14H45.361l2.334-14Zm-22.36 0-2.333 14H23.253l3.63-14ZM87 120H49v-4h38Zm-13-8H62v-6h12Zm-56-10v-4h102v4Z" fill="#03ca8f" data-original="#000000"></path></g></svg>